<?xml version="1.0" encoding="utf-8"?>
<!-- Generator: Adobe Illustrator 23.0.0, SVG Export Plug-In . SVG Version: 6.00 Build 0)  -->
<svg version="1.1" id="Layer_1" xmlns="http://www.w3.org/2000/svg" xmlns:xlink="http://www.w3.org/1999/xlink" x="0px" y="0px"
	 viewBox="0 0 100 100" style="enable-background:new 0 0 100 100;" xml:space="preserve">
<style type="text/css">
	.st0{fill:#FFFFFF;}
</style>
<g>
	<g>
		<path class="st0" d="M39.44,48.78L12.36,6.4c-1.08-1.76,0-3.79,2.3-3.79h15.71c1.08,0,1.76,0.68,2.17,1.22l17.33,28.71H50
			L67.6,3.83c0.27-0.54,1.08-1.22,2.17-1.22h15.71c2.3,0,3.39,2.03,2.3,3.79L60.56,48.78L88.73,93.6c1.08,1.9,0,3.79-2.3,3.79H71.8
			c-1.08,0-2.03-0.68-2.3-1.22L50.13,65.17h-0.41L30.64,96.17c-0.41,0.54-1.22,1.22-2.3,1.22H13.71c-2.44,0-3.52-2.03-2.44-3.79
			L39.44,48.78z"/>
	</g>
</g>
</svg>
