<?xml version="1.0" encoding="utf-8"?>
<!-- Generator: Adobe Illustrator 23.0.0, SVG Export Plug-In . SVG Version: 6.00 Build 0)  -->
<svg version="1.1" id="Layer_1" xmlns="http://www.w3.org/2000/svg" xmlns:xlink="http://www.w3.org/1999/xlink" x="0px" y="0px"
	 viewBox="0 0 50 80" style="enable-background:new 0 0 50 80;" xml:space="preserve">
<style type="text/css">
	.st0{fill:#FFFFFF;}
</style>
<g>
	<path class="st0" d="M42,10.28c-0.9-0.33-2.34-0.33-2.71,0.33c-0.37,0.66-1.64,3.78-1.68,4.88c-0.04,1.11-0.66,4.8-1.72,6.44
		c-1.07,1.64-3.24,7.64-3.24,7.64s-1.36-0.58-1.93-2.05c-0.57-1.48-0.62-4.02-0.78-6.03c-0.16-2.01-1.03-4.06-1.11-5.01
		c-0.08-0.94,0.04-2.5,0.08-3.32c0.04-0.82,1.81-1.35,1.97-1.93c0.16-0.57,1.31-2.91,0.66-4.64c-0.66-1.72-2.34-1.68-3.2-1.27
		s-1.68,1.15-1.68,1.15s0.21-2.42-1.15-3.74c-1.35-1.31-2.96-0.78-3.41,0.41c-0.45,1.19-0.16,5.21-0.08,6.32
		c0.08,1.11,0.37,4.93,0.37,4.93s-4.06,7.47-4.56,10.02c-0.49,2.54-0.25,3.16-0.25,3.16l-1.72,0.49c0,0-2.22-7.06-2.34-8.83
		c-0.12-1.77,0-5.71-0.62-7.39c-0.62-1.68-1.48-3.69-3.12-3.86C8.14,7.81,6.83,9,6.7,10.65c-0.12,1.64,0.62,11,0.86,12.52
		c0.25,1.52,2.34,12.4,2.38,12.6c0.04,0.21,0.53,1.6,0.53,1.6s-0.53,1.72-0.99,2.83c-0.45,1.11-0.66,3.37-0.12,4.8
		s1.31,5.13,2.3,6.77c0.99,1.64,1.52,3.78,2.22,4.76c0.7,0.99,2.05,2.46,1.72,3c-0.04,0.07-0.09,0.14-0.15,0.23h-0.51v0.85
		c-0.19,0.4-0.33,0.85-0.25,1.3c0.16,0.94,0,7.18,0.12,8.25c0.12,1.07,0.37,6.36,0.99,6.53s5.05,1.52,8.78,1.07
		c3.74-0.45,10.71,0.25,11.99-0.66c1.27-0.9,1.56-1.27,1.77-3.98c0.21-2.71-0.62-4.19-1.03-5.34c-0.41-1.15-1.23-2.87-1.07-4.27
		c0.16-1.4,0.16-3.16-0.12-3.76c-0.29-0.59-0.82-1.74-0.82-1.74s2.22-3,2.59-7.8s0.08-9.89,0.04-11.99
		c-0.04-2.09-0.33-3.08,0.25-5.62c0.57-2.54,2.59-7.27,3.16-8.66c0.57-1.4,2.09-6.16,2.13-8.21C43.52,13.68,42.91,10.6,42,10.28z"/>
	<g>
		<path d="M25.09,50c-0.19,0-0.28,0.08-0.28,0.25c-0.37,1.61-0.93,3.47-2.42,4.49c-0.09,0.08-0.19,0.17-0.19,0.25
			c0,0.25,0.19,0.42,0.37,0.42c1.58,0,2.88-4.06,2.88-5.08C25.46,50.17,25.28,50,25.09,50z"/>
		<path d="M43.97,17.13c0.4-2.58,0.5-7.37-2.99-7.95c-3.76-0.63-4.18,8.03-4.59,9.43c-0.41,1.44-1.14,3.28-1.94,5.1
			c-0.35,0.36-0.68,0.81-0.87,1.29c-0.55,1.41-1.48,3.35-1.53,3.44c-0.08-0.08-0.16-0.17-0.24-0.26c-0.35-0.43-0.97-1.38-0.97-2.72
			c0.01-1.86,0.4-7.52-1.3-10.42c0.09-0.4,0.09-0.79,0.09-1.28v-0.59c1.8-1.09,2.85-3.85,2.85-5.34c0-1.78-0.95-3.46-2.85-3.46
			c-0.76,0-1.8,0.3-2.18,0.69C26.99,3.17,26.04,1,23.86,1c-2.18,0-2.94,2.17-2.94,4.15c0,3.16,0.66,6.03,0.66,9.09
			c-1.61,2.95-3.53,7.83-4.21,10.8c-0.01,0.06-0.03,0.13-0.04,0.19c-0.14,0.63-0.22,1.16-0.22,1.56c0,0.06,0,0.11,0,0.17
			c-0.19,0.08-0.39,0.16-0.58,0.25c0,0-0.03,0.01-0.07,0.01c-0.17-0.46-0.53-1.33-0.57-1.47c-0.28-1.12-0.37-2.2-0.65-3.33
			c-0.24-0.94-0.56-1.85-0.82-2.88c-0.69-2.72-0.2-5.35-0.91-8.16c-0.59-2.34-2.47-4.83-4.9-4.17c-3.24,0.88-2.89,4.89-2.59,7.21
			c0.81,5.08,0.73,10.11,1.99,15.07l0.62,2.43c0.32,1.94,0.66,3.95,1.11,5.88c-0.28,0.99-0.67,1.92-1.23,2.75
			c-0.25,0.82-0.33,1.77-0.33,2.57c0,2.12,1.21,3.81,1.95,5.76c1.02,2.62,1.21,5.16,2.79,7.53c0.65,1.02,1.49,1.95,1.95,3.05
			c-0.93,0.85-0.74,2.79-0.74,3.3c0,1.02,0.09,2.03,0.09,3.05c-0.46,0.34-0.93,0.85-0.93,1.44c0,1.86,0.09,7.89,0.09,9.58
			c0,1.1,0.93,1.35,2.04,1.52c1.39,0.17,6.32,0.59,10.5,0.59c6.69,0.17,9.48-0.25,13.01-0.59c1.49-0.17,1.21-1.61,1.21-2.54
			c0-1.69,0.09-7.63,0.28-8.65c0.28-1.19-1.21-1.86-2.51-2.03c0,0-0.09,0-0.19,0c-0.46-0.08-0.74-0.17-0.74-0.76
			c0-1.27,0.19-2.46,0.19-3.73c0-0.51-0.28-1.52-0.65-1.52c1.58-4.66,2.6-9.74,2.6-14.65c0-3.39-0.65-6.69-0.65-9.99
			c0-0.09,0-0.18,0-0.26C39.63,28.27,43.02,23.17,43.97,17.13z M22.62,3.37c0.19-0.59,0.76-0.89,1.33-0.89
			c1.33,0,2.09,1.78,2.09,2.97c0,2.27-2.28,4.45-3.13,5.93c0-2.08-0.66-4.05-0.66-6.23C22.24,4.56,22.34,3.97,22.62,3.37z
			 M22.91,14.84c1.71-3.26,3.99-9,6.65-9c0.85,0,1.52,0.59,1.52,1.98c0,2.77-3.51,4.74-3.51,5.04c0,0.59,0.67,0.69,0.67,1.09
			c0,2.87-3.23,6.03-3.23,5.44c0,0.49,1.04,0.49,1.42,0.79c-0.09,2.05,0.16,4.27-1,5.84c-0.43-1.33-1.45-2.44-3.02-2.44
			c-1.3,0-2.79,1.38-3.79,2.34C19.03,22.38,21.77,16.93,22.91,14.84z M7.62,16.21c-0.12-2.37-1.31-7.05,1.3-7.76
			c0.72-0.2,1.4,0.22,1.81,0.71c0.75,0.7,1.17,1.58,1.41,2.52c0.88,3.46,0.05,7.39-0.17,6.55c0.31,1.22,1.19,1.68,1.88,4.39
			c0.26,1.03,0.37,2.2,0.65,3.33c0.09,0.36,0.34,1.1,0.51,1.62c-3.28,0.15-4.15,3.54-4.56,5.81c-0.04,0.43-0.08,0.87-0.13,1.3
			C8.95,28.62,7.98,22.46,7.62,16.21z M37.27,43.22c-0.65,1.27-1.3,3.22-1.3,3.81c0,0.85,0.65,3.22,0.65,5.33
			c0,1.35-2.88,6.52-7.9,6.52h-3.25c-1.39,0-4.28,0.25-4.28,0.85c0,0.42,1.12,0.51,4.46,0.51c4,0,9.48-0.17,10.04-0.17
			c0,0,0,0,0.09,0.08v0.93c0,1.02-0.19,2.03-0.19,3.05c0,0.25,0,0.59,0.09,0.85c-1.77,1.02-6.6,0.93-7.62,0.93
			c-6.14,0-7.72,0-12.46-0.51c0-0.93-0.09-1.95-0.09-2.88c0-4.32,0.93-1.44,0.93-2.88c0-0.08,0-0.08,0-0.17
			c-0.93-2.2-2.79-3.89-3.63-6.18c-0.37-1.19-0.56-2.45-0.93-3.64c-0.65-2.54-2.32-4.32-2.32-6.86c0-2.54,1.49-4.74,1.86-7.2
			c0.74-2.62-0.46-5.16,4.18-6.86c1.12-0.42,2.14-0.68,3.35-1.27c0,0.51,1.21,1.69,1.77,1.69c0.37,0,0.93-0.25,0.93-0.51
			c0-0.17-0.09-0.34-0.28-0.34c-0.19,0-0.46,0.17-0.65,0.17c-0.56,0-0.93-1.27-1.39-1.27c0.56-0.42,1.02-0.93,1.49-1.44
			c0.46-0.42,1.02-1.02,1.67-1.02c1.21,0,1.77,1.52,1.77,2.45c0,2.88-3.35,6.69-5.3,6.69c-0.37,0.08-0.65,0.34-0.65,0.68
			c0,0.34,0.46,0.68,0.46,1.35c0,1.35-2.14,1.61-2.14,1.86c0,0.25,0.19,0.34,0.37,0.34c0.37,0,0.74-0.08,1.02-0.25
			c0.19-0.25,0.56,1.35,0.93,2.2c0.19,0.42,0.19,0.85-0.19,1.27c-0.65,0.59-1.49,2.79-1.49,2.96c0,0.17,0.19,0.34,0.37,0.34
			c1.3,0,1.49-3.13,2.32-3.13c0.74,0,1.02,0.85,1.02,1.61c0,0.59-0.19,1.02-0.19,1.27c0,0.17,0.19,0.25,0.37,0.25
			c0.28,0,0.56-1.19,0.84-1.69c1.21,0.34,1.49,1.27,1.95,1.27c0.19,0,0.37-0.17,0.37-0.34c0-0.17-0.09-0.34-0.09-0.51
			c1.86,0,4.18,3.47,4.46,4.99c0,0.76-0.37,1.35-0.37,1.95c0,0.17,0.19,0.25,0.37,0.25c0.56,0,0.74-1.69,0.74-2.29
			c0-1.52-0.56-2.29-1.39-3.39c1.12,0,2.04,1.95,2.42,1.95c0.28,0,0.46-0.17,0.46-0.34c0-0.28-0.68-1.12-1.28-1.79
			c-0.01,0-0.02-0.01-0.03-0.01c-1.8-2.82-5.53-5.29-6.76-7.06c-1.25-1.8-0.97-2.66-0.97-2.66c0.72-2.1,2.76-3.75,3.5-5.83
			c0.07-0.15,0.13-0.31,0.17-0.47c0.24-0.81,0.43-0.96,0.82-0.41c0.39,0.55,0.94,0.82,1.49,1.14c0.55,0.31,1.06,0.35,1.29,0.16
			c0.24-0.2-0.2-0.71-0.85-1.28c-0.34-0.3-0.47-0.76-0.49-1.36c0.01-1.17,0.38-2.34,0.38-3.32c0-0.99-0.19-1.98-0.19-3.06
			c0-0.59,0.47-1.19,0.76-1.19c0.54,0,0.65,1.15,0.67,2.14c0,0.02,0,0.04,0,0.06c-0.08,2.23-0.27,4.12,0.16,5.27
			c0.43,1.16,1.53,2.84,3.27,3.27c1.74,0.43,2.23,0.39,2.21,0.02c-0.02-0.37-0.27-0.33-0.67-0.39c-0.39-0.06-0.63-0.43-0.61-1.04
			c0.01-0.3,0.04-0.51,0.12-0.75c1.35-2.49,2.47-5.09,3.42-7.73c0.94-2.39,1.3-10.08,3.5-9.71c2.48,0.41,1.99,4.75,1.64,6.94
			c-0.12,0.76-0.18,1.74-1.28,1.55c-0.18-0.03-0.3,0.15-0.33,0.34c-0.06,0.38,0.84,0.63,0.74,1.3c-0.04,0.29-0.12,0.76-0.27,1.13
			c-0.58,1.86-2.06,6.52-3.14,6.83c-0.09-0.02-0.31,0.15-0.32,0.24c-0.01,0.08,0,0.17,0.03,0.27c-0.08,0.21-0.38,0.92-0.57,1.82
			c-0.19,0.93-0.28,1.95-0.28,2.88c0,1.27,0.09,2.45,0.19,3.72c-0.19,0.68-0.46,1.44-0.46,2.12C36.8,40.85,37.27,41.95,37.27,43.22z
			"/>
		<path d="M33.8,36.54c-2.4-0.72-4.46-2.13-6.23-3.83c-0.28-0.3-0.72,0.25-0.44,0.46c1.94,1.76,4.1,3.25,6.58,3.96
			C34.13,37.25,34.23,36.66,33.8,36.54z"/>
	</g>
	<g>
		<path class="st0" d="M22.64,75.75H21l-0.57-0.73c-0.79,0.64-1.44,0.92-2.13,0.92c-1.26,0-2.19-0.9-2.19-2.14
			c0-0.94,0.39-1.48,1.62-2.28c-0.47-0.68-0.61-1.03-0.61-1.52c0-0.92,0.78-1.59,1.86-1.59c1.05,0,1.82,0.66,1.82,1.57
			c0,0.38-0.16,0.8-0.44,1.15c-0.19,0.22-0.37,0.38-0.79,0.66l1.03,1.37c0.55-0.49,0.63-0.57,1.09-1.11l0.95,0.84
			c-0.59,0.65-0.68,0.74-1.25,1.27L22.64,75.75z M18.44,72.52c-0.69,0.45-0.93,0.75-0.93,1.17c0,0.52,0.44,0.96,0.95,0.96
			c0.39,0,0.75-0.2,1.14-0.64L18.44,72.52z M19.5,70.01c0-0.29-0.21-0.51-0.5-0.51c-0.3,0-0.55,0.23-0.55,0.52
			c0,0.26,0.09,0.45,0.39,0.83C19.33,70.54,19.5,70.32,19.5,70.01z"/>
		<path class="st0" d="M31.17,74.78c-0.86,0.81-1.67,1.13-2.78,1.13c-1.11,0-2.02-0.38-2.68-1.12c-0.64-0.71-1.01-1.72-1.01-2.75
			c0-2.28,1.55-3.91,3.71-3.91c1.16,0,1.94,0.33,2.83,1.19l-1,1.01c-0.61-0.55-1.12-0.77-1.75-0.77c-1.31,0-2.23,1.01-2.23,2.45
			s0.97,2.48,2.31,2.48c0.68,0,1.21-0.24,1.67-0.76L31.17,74.78z"/>
		<path class="st0" d="M35.78,75.14c0,0.46-0.36,0.8-0.83,0.8c-0.48,0-0.83-0.35-0.83-0.83c0-0.47,0.35-0.82,0.84-0.82
			C35.43,74.3,35.78,74.65,35.78,75.14z"/>
		<g>
			<path class="st0" d="M34.98,72.97c-1.37,0-2.44-1.03-2.44-2.36c0-0.66,0.27-1.28,0.77-1.75c0.44-0.41,1.04-0.64,1.7-0.64
				c1.35,0,2.36,1.02,2.36,2.38C37.37,71.91,36.3,72.97,34.98,72.97z M34.97,69.5c-0.61,0-1.05,0.46-1.05,1.1
				c0,0.61,0.46,1.09,1.04,1.09c0.57,0,1.04-0.48,1.04-1.07C36,69.98,35.55,69.5,34.97,69.5z"/>
		</g>
	</g>
</g>
</svg>
